# xmcd CD database file
#
# Track frame offsets:
#	150
#	22750
#	46362
#	66330
#
# Disc length: 1094 seconds
#
# Revision: 0
# Processed by: cddbd v1.5PL3 Copyright (c) Steve Scherf et al.
# Submitted via: CDex 1.51
#
DISCID=2b044404
DTITLE=Bob Belden's Manhattan Rhythm Club - KISS - PURPLE RAIN
DYEAR=1994
DGENRE=
TTITLE0=KISS (ALBUM VERSION) Featuring JIMI TUNNELL
TTITLE1=KISS (SMASH MIX) Featuring JIMI TUNNELL
TTITLE2=PURPLE RAIN (ALBUM VERSION) Featuring HOLLY COLE
TTITLE3=PURPLE RAIN (INSTRUMENTAL)
EXTD=YEAR: 1994
EXTT0=
EXTT1=
EXTT2=
EXTT3=
PLAYORDER=
